<?xml version="1.0" encoding="UTF-8" standalone="no"?>
<!DOCTYPE svg PUBLIC "-//W3C//DTD SVG 1.0//EN" "http://www.w3.org/TR/2001/PR-SVG-20010719/DTD/svg10.dtd">
<svg width="99cm" height="52cm" viewBox="-340 -808 1968 1035" xmlns="http://www.w3.org/2000/svg" xmlns:xlink="http://www.w3.org/1999/xlink">
  <g>
    <rect style="fill: #ffffff" x="763.095" y="-786.793" width="863.638" height="528.978"/>
    <rect style="fill: none; fill-opacity:0; stroke-width: 2; stroke: #000000" x="763.095" y="-786.793" width="863.638" height="528.978"/>
    <rect style="fill: #ffffff" x="763.095" y="-806.793" width="42.5" height="20"/>
    <rect style="fill: none; fill-opacity:0; stroke-width: 2; stroke: #000000" x="763.095" y="-806.793" width="42.5" height="20"/>
    <text font-size="12.7998" style="fill: #000000;text-anchor:start;font-family:monospace;font-style:normal;font-weight:normal" x="765.095" y="-791.793">Model</text>
  </g>
  <g>
    <polyline style="fill: none; fill-opacity:0; stroke-width: 2; stroke: #000000" points="1330.66,-637.992 1330.66,-615.996 1502.39,-615.996 1502.39,-591.763 "/>
    <polygon style="fill: #ffffff" points="1338.66,-637.992 1330.66,-653.992 1322.66,-637.992 "/>
    <polygon style="fill: none; fill-opacity:0; stroke-width: 2; stroke: #000000" points="1338.66,-637.992 1330.66,-653.992 1322.66,-637.992 "/>
  </g>
  <g>
    <polyline style="fill: none; fill-opacity:0; stroke-width: 2; stroke: #000000" points="1330.66,-637.992 1330.66,-613.981 1158.01,-613.981 1158.01,-587.734 "/>
    <polygon style="fill: #ffffff" points="1338.66,-637.992 1330.66,-653.992 1322.66,-637.992 "/>
    <polygon style="fill: none; fill-opacity:0; stroke-width: 2; stroke: #000000" points="1338.66,-637.992 1330.66,-653.992 1322.66,-637.992 "/>
  </g>
  <g>
    <rect style="fill: #ffffff" x="863.34" y="-737.969" width="171.7" height="28"/>
    <rect style="fill: none; fill-opacity:0; stroke-width: 2; stroke: #000000" x="863.34" y="-737.969" width="171.7" height="28"/>
    <text font-size="16" style="fill: #000000;text-anchor:middle;font-family:sans-serif;font-style:normal;font-weight:700" x="949.19" y="-718.969">Viagem</text>
    <rect style="fill: #ffffff" x="863.34" y="-709.969" width="171.7" height="68"/>
    <rect style="fill: none; fill-opacity:0; stroke-width: 2; stroke: #000000" x="863.34" y="-709.969" width="171.7" height="68"/>
    <text font-size="12.8" style="fill: #000000;text-anchor:start;font-family:monospace;font-style:normal;font-weight:normal" x="866.34" y="-695.969">-motorista: Motorista</text>
    <text font-size="12.8" style="fill: #000000;text-anchor:start;font-family:monospace;font-style:normal;font-weight:normal" x="866.34" y="-679.969">-cliente: Cliente</text>
    <text font-size="12.8" style="fill: #000000;text-anchor:start;font-family:monospace;font-style:normal;font-weight:normal" x="866.34" y="-663.969">-valor: float</text>
    <text font-size="12.8" style="fill: #000000;text-anchor:start;font-family:monospace;font-style:normal;font-weight:normal" x="866.34" y="-647.969">-distancia: int</text>
    <rect style="fill: #ffffff" x="863.34" y="-641.969" width="171.7" height="20"/>
    <rect style="fill: none; fill-opacity:0; stroke-width: 2; stroke: #000000" x="863.34" y="-641.969" width="171.7" height="20"/>
    <text font-size="12.8" style="fill: #000000;text-anchor:start;font-family:monospace;font-style:normal;font-weight:normal" x="866.34" y="-627.969">+run(): void</text>
  </g>
  <g>
    <rect style="fill: #ffffff" x="1004.1" y="-354.97" width="133.2" height="28"/>
    <rect style="fill: none; fill-opacity:0; stroke-width: 2; stroke: #000000" x="1004.1" y="-354.97" width="133.2" height="28"/>
    <text font-size="16" style="fill: #000000;text-anchor:middle;font-family:sans-serif;font-style:normal;font-weight:700" x="1070.7" y="-335.97">Cidade</text>
    <rect style="fill: #ffffff" x="1004.1" y="-326.97" width="133.2" height="20"/>
    <rect style="fill: none; fill-opacity:0; stroke-width: 2; stroke: #000000" x="1004.1" y="-326.97" width="133.2" height="20"/>
    <text font-size="12.8" style="fill: #000000;text-anchor:start;font-family:monospace;font-style:normal;font-weight:normal" x="1007.1" y="-312.97">-matriz: int[][]</text>
    <rect style="fill: #ffffff" x="1004.1" y="-306.97" width="133.2" height="8"/>
    <rect style="fill: none; fill-opacity:0; stroke-width: 2; stroke: #000000" x="1004.1" y="-306.97" width="133.2" height="8"/>
  </g>
  <g>
    <rect style="fill: #ffffff" x="1256.36" y="-745.234" width="148.6" height="28"/>
    <rect style="fill: none; fill-opacity:0; stroke-width: 2; stroke: #000000" x="1256.36" y="-745.234" width="148.6" height="28"/>
    <text font-size="16" style="fill: #000000;text-anchor:middle;font-family:sans-serif;font-style:normal;font-weight:700" x="1330.66" y="-726.234">Pessoa</text>
    <rect style="fill: #ffffff" x="1256.36" y="-717.234" width="148.6" height="52"/>
    <rect style="fill: none; fill-opacity:0; stroke-width: 2; stroke: #000000" x="1256.36" y="-717.234" width="148.6" height="52"/>
    <text font-size="12.8" style="fill: #000000;text-anchor:start;font-family:monospace;font-style:normal;font-weight:normal" x="1259.36" y="-703.234">-nome: String</text>
    <text font-size="12.8" style="fill: #000000;text-anchor:start;font-family:monospace;font-style:normal;font-weight:normal" x="1259.36" y="-687.234">-posicao: int</text>
    <text font-size="12.8" style="fill: #000000;text-anchor:start;font-family:monospace;font-style:normal;font-weight:normal" x="1259.36" y="-671.234">-emViagem: boolean</text>
    <rect style="fill: #ffffff" x="1256.36" y="-665.234" width="148.6" height="8"/>
    <rect style="fill: none; fill-opacity:0; stroke-width: 2; stroke: #000000" x="1256.36" y="-665.234" width="148.6" height="8"/>
  </g>
  <g>
    <rect style="fill: #ffffff" x="1064.46" y="-586.727" width="187.1" height="28"/>
    <rect style="fill: none; fill-opacity:0; stroke-width: 2; stroke: #000000" x="1064.46" y="-586.727" width="187.1" height="28"/>
    <text font-size="16" style="fill: #000000;text-anchor:middle;font-family:sans-serif;font-style:normal;font-weight:700" x="1158.01" y="-567.727">Cliente</text>
    <rect style="fill: #ffffff" x="1064.46" y="-558.727" width="187.1" height="52"/>
    <rect style="fill: none; fill-opacity:0; stroke-width: 2; stroke: #000000" x="1064.46" y="-558.727" width="187.1" height="52"/>
    <text font-size="12.8" style="fill: #000000;text-anchor:start;font-family:monospace;font-style:normal;font-weight:normal" x="1067.46" y="-544.727">-posicaoFinal: int</text>
    <text font-size="12.8" style="fill: #000000;text-anchor:start;font-family:monospace;font-style:normal;font-weight:normal" x="1067.46" y="-528.727">-requisicoes: int</text>
    <text font-size="12.8" style="fill: #000000;text-anchor:start;font-family:monospace;font-style:normal;font-weight:normal" x="1067.46" y="-512.727">-tempoEspera: int</text>
    <rect style="fill: #ffffff" x="1064.46" y="-506.727" width="187.1" height="20"/>
    <rect style="fill: none; fill-opacity:0; stroke-width: 2; stroke: #000000" x="1064.46" y="-506.727" width="187.1" height="20"/>
    <text font-size="12.8" style="fill: #000000;text-anchor:start;font-family:monospace;font-style:normal;font-weight:normal" x="1067.46" y="-492.727">+InctempoEspera(): void</text>
  </g>
  <g>
    <rect style="fill: #ffffff" x="1447.34" y="-590.756" width="110.1" height="28"/>
    <rect style="fill: none; fill-opacity:0; stroke-width: 2; stroke: #000000" x="1447.34" y="-590.756" width="110.1" height="28"/>
    <text font-size="16" style="fill: #000000;text-anchor:middle;font-family:sans-serif;font-style:normal;font-weight:700" x="1502.39" y="-571.756">Motorista</text>
    <rect style="fill: #ffffff" x="1447.34" y="-562.756" width="110.1" height="20"/>
    <rect style="fill: none; fill-opacity:0; stroke-width: 2; stroke: #000000" x="1447.34" y="-562.756" width="110.1" height="20"/>
    <text font-size="12.8" style="fill: #000000;text-anchor:start;font-family:monospace;font-style:normal;font-weight:normal" x="1450.34" y="-548.756">-lucro: float</text>
    <rect style="fill: #ffffff" x="1447.34" y="-542.756" width="110.1" height="8"/>
    <rect style="fill: none; fill-opacity:0; stroke-width: 2; stroke: #000000" x="1447.34" y="-542.756" width="110.1" height="8"/>
  </g>
  <g>
    <rect style="fill: #ffffff" x="-338.948" y="-533.228" width="520.873" height="311.572"/>
    <rect style="fill: none; fill-opacity:0; stroke-width: 2; stroke: #000000" x="-338.948" y="-533.228" width="520.873" height="311.572"/>
    <rect style="fill: #ffffff" x="-338.948" y="-553.228" width="81" height="20"/>
    <rect style="fill: none; fill-opacity:0; stroke-width: 2; stroke: #000000" x="-338.948" y="-553.228" width="81" height="20"/>
    <text font-size="12.7998" style="fill: #000000;text-anchor:start;font-family:monospace;font-style:normal;font-weight:normal" x="-336.948" y="-538.228">Controller</text>
  </g>
  <g>
    <rect style="fill: #ffffff" x="-246.4" y="-488.88" width="294.9" height="28"/>
    <rect style="fill: none; fill-opacity:0; stroke-width: 2; stroke: #000000" x="-246.4" y="-488.88" width="294.9" height="28"/>
    <text font-size="16" style="fill: #000000;text-anchor:middle;font-family:sans-serif;font-style:normal;font-weight:700" x="-98.9498" y="-469.88">UberController</text>
    <rect style="fill: #ffffff" x="-246.4" y="-460.88" width="294.9" height="84"/>
    <rect style="fill: none; fill-opacity:0; stroke-width: 2; stroke: #000000" x="-246.4" y="-460.88" width="294.9" height="84"/>
    <text font-size="12.8" style="fill: #000000;text-anchor:start;font-family:monospace;font-style:normal;font-weight:normal" x="-243.4" y="-446.88">- cidade: Cidade</text>
    <text font-size="12.8" style="fill: #000000;text-anchor:start;font-family:monospace;font-style:normal;font-weight:normal" x="-243.4" y="-430.88">-motoristas: ArrayList&lt;Motorista&gt;</text>
    <text font-size="12.8" style="fill: #000000;text-anchor:start;font-family:monospace;font-style:normal;font-weight:normal" x="-243.4" y="-414.88">-clientes: ArrayList&lt;Cliente</text>
    <text font-size="12.8" style="fill: #000000;text-anchor:start;font-family:monospace;font-style:normal;font-weight:normal" x="-243.4" y="-398.88">-viagens: ArrayList&lt;Viagem&gt;</text>
    <text font-size="12.8" style="fill: #000000;text-anchor:start;font-family:monospace;font-style:normal;font-weight:normal" x="-243.4" y="-382.88">-lucro: float</text>
    <rect style="fill: #ffffff" x="-246.4" y="-376.88" width="294.9" height="68"/>
    <rect style="fill: none; fill-opacity:0; stroke-width: 2; stroke: #000000" x="-246.4" y="-376.88" width="294.9" height="68"/>
    <text font-size="12.8" style="fill: #000000;text-anchor:start;font-family:monospace;font-style:normal;font-weight:normal" x="-243.4" y="-362.88">+iniciaSimulacao(): void</text>
    <text font-size="12.8" style="fill: #000000;text-anchor:start;font-family:monospace;font-style:normal;font-weight:normal" x="-243.4" y="-346.88">-geraViagem(pm:int,pc:int): boolean</text>
    <text font-size="12.8" style="fill: #000000;text-anchor:start;font-family:monospace;font-style:normal;font-weight:normal" x="-243.4" y="-330.88">+getMotoristasProximos(id:int): int[]</text>
    <text font-size="12.8" style="fill: #000000;text-anchor:start;font-family:monospace;font-style:normal;font-weight:normal" x="-243.4" y="-314.88">+geraRequisicao(id:int): boolean</text>
  </g>
  <g>
    <polyline style="fill: none; fill-opacity:0; stroke-width: 2; stroke: #000000" points="49.5093,-398.88 526.299,-398.88 526.299,-326.97 1003.09,-326.97 "/>
    <polygon style="fill: #000000" points="530.299,-362.925 530.299,-370.925 538.299,-366.925 "/>
  </g>
  <g>
    <polyline style="fill: none; fill-opacity:0; stroke-width: 2; stroke: #000000" points="949.19,-620.962 949.19,-555.424 -98.9498,-555.424 -98.9498,-489.886 "/>
    <polygon style="fill: #000000" points="427.12,-555.424 427.12,-563.424 435.12,-559.424 "/>
  </g>
  <g>
    <rect style="fill: #ffffff" x="-10.7262" y="-147.925" width="746.822" height="373.411"/>
    <rect style="fill: none; fill-opacity:0; stroke-width: 2; stroke: #000000" x="-10.7262" y="-147.925" width="746.822" height="373.411"/>
    <rect style="fill: #ffffff" x="-10.7262" y="-167.925" width="42.5" height="20"/>
    <rect style="fill: none; fill-opacity:0; stroke-width: 2; stroke: #000000" x="-10.7262" y="-167.925" width="42.5" height="20"/>
    <text font-size="12.7998" style="fill: #000000;text-anchor:start;font-family:monospace;font-style:normal;font-weight:normal" x="-8.72621" y="-152.925">Utils</text>
  </g>
  <g>
    <rect style="fill: #ffffff" x="42.4277" y="-44.0643" width="441.2" height="28"/>
    <rect style="fill: none; fill-opacity:0; stroke-width: 2; stroke: #000000" x="42.4277" y="-44.0643" width="441.2" height="28"/>
    <text font-size="16" style="fill: #000000;text-anchor:middle;font-family:sans-serif;font-style:normal;font-weight:700" x="263.028" y="-25.0643">ManipuladorArquivos</text>
    <rect style="fill: #ffffff" x="42.4277" y="-16.0643" width="441.2" height="8"/>
    <rect style="fill: none; fill-opacity:0; stroke-width: 2; stroke: #000000" x="42.4277" y="-16.0643" width="441.2" height="8"/>
    <rect style="fill: #ffffff" x="42.4277" y="-8.06427" width="441.2" height="52"/>
    <rect style="fill: none; fill-opacity:0; stroke-width: 2; stroke: #000000" x="42.4277" y="-8.06427" width="441.2" height="52"/>
    <text font-size="12.8" style="fill: #000000;text-anchor:start;font-family:monospace;font-style:normal;font-weight:normal" x="45.4277" y="5.93573">+carregaCidade(caminho:String): int[][]</text>
    <text font-size="12.8" style="fill: #000000;text-anchor:start;font-family:monospace;font-style:normal;font-weight:normal" x="45.4277" y="21.9357">+carregaClientes(caminho:String): ArrayList&lt;Cliente&gt;</text>
    <text font-size="12.8" style="fill: #000000;text-anchor:start;font-family:monospace;font-style:normal;font-weight:normal" x="45.4277" y="37.9357">+carregaMotoristas(caminho:String): ArrayList&lt;Motorista&gt;</text>
  </g>
  <g>
    <rect style="fill: #ffffff" x="399.632" y="108.385" width="234" height="28"/>
    <rect style="fill: none; fill-opacity:0; stroke-width: 2; stroke: #000000" x="399.632" y="108.385" width="234" height="28"/>
    <text font-size="16" style="fill: #000000;text-anchor:middle;font-family:sans-serif;font-style:normal;font-weight:700" x="516.632" y="127.385">SemMotoristasException</text>
    <rect style="fill: #ffffff" x="399.632" y="136.385" width="234" height="8"/>
    <rect style="fill: none; fill-opacity:0; stroke-width: 2; stroke: #000000" x="399.632" y="136.385" width="234" height="8"/>
    <rect style="fill: #ffffff" x="399.632" y="144.385" width="234" height="8"/>
    <rect style="fill: none; fill-opacity:0; stroke-width: 2; stroke: #000000" x="399.632" y="144.385" width="234" height="8"/>
  </g>
</svg>
